<?xml version="1.0" standalone="no"?>
<!DOCTYPE svg PUBLIC "-//W3C//DTD SVG 20010904//EN"
 "http://www.w3.org/TR/2001/REC-SVG-20010904/DTD/svg10.dtd">
<svg version="1.0" xmlns="http://www.w3.org/2000/svg"
 width="1080.000000pt" height="1080.000000pt" viewBox="0 0 1080.000000 1080.000000"
 preserveAspectRatio="xMidYMid meet">

<g transform="translate(0.000000,1080.000000) scale(0.100000,-0.100000)"
fill="#000000" stroke="none">
<path d="M5362 9393 c-34 -55 -72 -120 -103 -178 -12 -22 -31 -53 -43 -70 -13
-16 -40 -61 -62 -98 -21 -38 -46 -79 -54 -92 -8 -12 -47 -76 -86 -141 -76
-127 -103 -173 -174 -290 -25 -41 -74 -123 -109 -182 -35 -59 -90 -147 -121
-197 -31 -49 -104 -169 -162 -265 -58 -96 -131 -218 -163 -270 -32 -52 -73
-120 -90 -150 -18 -30 -70 -116 -115 -190 -46 -74 -149 -243 -228 -375 -79
-132 -161 -265 -181 -297 -20 -31 -54 -86 -76 -123 -22 -37 -52 -86 -66 -108
-14 -23 -40 -66 -57 -94 l-32 -53 779 0 779 0 40 68 c68 116 254 425 279 463
12 19 23 39 23 45 0 5 14 25 30 44 l30 35 20 -25 c11 -14 20 -28 20 -31 0 -3
59 -102 131 -220 150 -245 199 -326 214 -354 10 -20 22 -20 788 -23 427 -1
777 0 777 3 0 6 -209 360 -269 455 -18 28 -166 273 -202 334 -81 135 -170 284
-202 336 -19 30 -90 147 -157 260 -191 319 -289 478 -345 565 -55 84 -179 288
-223 365 -14 25 -33 56 -42 70 -32 48 -90 140 -90 143 0 2 -45 77 -100 168
-55 90 -116 193 -137 227 -21 35 -45 74 -53 87 -8 13 -39 65 -68 114 -29 50
-57 91 -62 91 -4 0 -21 -21 -38 -47z"/>
<path d="M2452 4597 c-5 -6 -25 -39 -44 -72 -19 -33 -74 -124 -122 -203 -48
-79 -103 -173 -123 -210 -20 -37 -63 -111 -97 -165 -53 -85 -95 -155 -162
-272 -9 -16 -36 -60 -60 -97 -24 -37 -44 -70 -44 -74 0 -4 -11 -22 -25 -40
-14 -18 -25 -36 -25 -39 0 -4 -20 -37 -44 -74 -24 -36 -54 -86 -67 -111 -14
-25 -46 -78 -72 -118 -26 -40 -58 -94 -72 -120 -14 -26 -31 -56 -38 -66 -58
-90 -77 -122 -77 -133 0 -9 864 -12 4020 -13 3345 0 4020 2 4020 13 0 7 -16
40 -36 73 -20 32 -68 111 -106 174 -38 63 -106 176 -152 250 -182 300 -206
340 -206 350 0 5 -3 10 -8 10 -4 0 -18 21 -32 48 -13 26 -27 49 -30 52 -4 3
-24 34 -45 70 -40 68 -59 98 -196 322 -46 76 -126 207 -177 293 l-94 155 -775
0 -775 0 18 -27 c10 -16 29 -48 43 -72 13 -24 38 -66 55 -92 17 -26 41 -65 54
-86 12 -21 45 -74 72 -118 28 -43 50 -87 50 -96 0 -14 -39 -16 -407 -22 -547
-8 -2917 -9 -2937 -1 -9 3 -16 12 -16 18 0 7 28 58 63 114 34 56 99 162 145
235 45 74 82 139 82 146 0 17 -1544 15 -1558 -2z"/>
<path d="M4666 4570 c-65 -20 -103 -82 -126 -206 -15 -85 -9 -116 30 -155 51
-51 138 -31 179 41 22 39 22 40 3 40 -12 0 -24 -11 -32 -30 -34 -82 -125 -80
-146 3 -8 34 13 170 34 212 8 17 24 40 35 53 42 45 127 16 127 -43 0 -15 6
-25 14 -25 21 0 26 13 18 45 -14 51 -79 82 -136 65z"/>
<path d="M4363 4558 c-18 -23 -183 -345 -183 -357 0 -27 27 -7 50 37 24 45 27
47 74 50 76 5 96 -3 96 -37 0 -39 9 -61 26 -61 17 0 18 39 4 160 -5 47 -12
115 -15 153 -6 55 -10 67 -25 67 -9 0 -22 -6 -27 -12z m22 -161 l0 -82 -44 -3
c-67 -5 -69 6 -22 104 51 107 65 103 66 -19z"/>
<path d="M4906 4379 c-74 -145 -94 -190 -80 -187 10 1 30 23 44 48 l26 45 64
3 c70 3 80 -3 80 -56 0 -30 22 -54 36 -39 3 3 -1 82 -10 176 -9 93 -16 177
-16 185 0 10 -9 16 -22 16 -20 0 -38 -29 -122 -191z m121 27 c7 -88 3 -96 -60
-96 -24 0 -40 5 -43 14 -7 19 76 180 87 169 5 -5 12 -44 16 -87z"/>
<path d="M5231 4533 c-13 -50 -57 -258 -66 -305 l-6 -38 79 0 c65 0 85 4 112
23 43 28 69 80 86 167 16 84 6 128 -37 164 -26 22 -40 26 -94 26 l-64 0 -10
-37z m153 -13 c42 -42 14 -223 -44 -281 -24 -24 -37 -29 -79 -29 -50 0 -51 1
-51 30 0 33 54 282 65 301 11 17 85 4 109 -21z"/>
<path d="M5566 4561 c-6 -9 -76 -339 -76 -357 0 -12 170 -27 196 -17 32 12 -2
23 -71 23 -41 0 -76 4 -79 8 -4 7 20 142 27 148 1 1 34 4 72 7 83 7 75 5 75
17 0 5 -30 10 -67 12 l-68 3 3 35 c1 19 7 52 13 73 l10 37 84 0 c50 0 85 4 85
10 0 12 -197 14 -204 1z"/>
<path d="M5822 4423 c-45 -210 -48 -233 -29 -233 15 0 27 41 57 195 24 126 36
123 50 -16 15 -146 21 -179 34 -179 6 0 41 57 78 128 37 70 74 136 82 147 15
20 15 20 16 -2 0 -12 -11 -73 -25 -137 -29 -136 -29 -136 -10 -136 8 0 18 16
24 38 9 33 71 330 71 339 0 2 -13 3 -28 3 -26 0 -33 -10 -106 -160 -42 -88
-82 -160 -87 -160 -12 0 -17 28 -24 130 -12 181 -14 190 -44 190 -27 0 -27 -2
-59 -147z"/>
<path d="M6240 4564 c0 -3 14 -58 31 -122 28 -104 30 -122 20 -165 -14 -63
-14 -87 2 -87 8 0 20 28 30 70 13 56 32 93 92 182 41 61 75 115 75 120 0 4 -6
8 -14 8 -8 0 -42 -43 -75 -95 -34 -53 -65 -93 -70 -90 -5 3 -17 40 -26 83 -10
42 -19 83 -21 90 -3 11 -44 18 -44 6z"/>
</g>
</svg>
