<?xml version="1.0" standalone="no"?>
<!DOCTYPE svg PUBLIC "-//W3C//DTD SVG 20010904//EN"
 "http://www.w3.org/TR/2001/REC-SVG-20010904/DTD/svg10.dtd">
<svg version="1.0" xmlns="http://www.w3.org/2000/svg"
 width="225.000000pt" height="225.000000pt" viewBox="0 0 225.000000 225.000000"
 preserveAspectRatio="xMidYMid meet">

<g transform="translate(0.000000,225.000000) scale(0.100000,-0.100000)"
fill="#000000" stroke="none">
<path d="M501 1569 c-96 -19 -230 -74 -278 -115 -13 -12 -30 -48 -42 -92 -20
-75 -20 -75 30 -41 39 27 124 59 218 83 l84 21 17 50 c24 72 31 105 23 104 -5
-1 -28 -5 -52 -10z"/>
<path d="M633 1423 c9 -2 23 -2 30 0 6 3 -1 5 -18 5 -16 0 -22 -2 -12 -5z"/>
<path d="M841 1414 c0 -11 3 -14 6 -6 3 7 2 16 -1 19 -3 4 -6 -2 -5 -13z"/>
<path d="M554 1378 l-29 -33 33 29 c30 28 37 36 29 36 -2 0 -16 -15 -33 -32z"/>
<path d="M727 1381 c-107 -6 -109 -6 -138 -39 -16 -18 -29 -38 -29 -45 0 -6 9
3 20 21 27 43 54 52 166 52 56 0 94 4 94 10 0 6 -1 9 -2 8 -2 -1 -52 -4 -111
-7z"/>
<path d="M342 1333 c-24 -8 -41 -17 -39 -19 2 -2 23 3 47 11 35 12 45 13 52 3
5 -10 8 -8 8 5 0 20 -11 20 -68 0z"/>
<path d="M516 1325 c-9 -26 -7 -32 5 -12 6 10 9 21 6 23 -2 3 -7 -2 -11 -11z"/>
<path d="M871 1323 c0 -11 3 -13 6 -5 6 14 219 17 242 3 8 -5 17 -26 21 -47 8
-39 8 -39 9 -6 1 20 -6 39 -19 52 -18 18 -33 20 -140 20 -108 0 -120 -2 -119
-17z"/>
<path d="M1300 1330 c-11 -8 -7 -9 15 -4 37 8 45 14 19 14 -10 0 -26 -5 -34
-10z"/>
<path d="M1427 1333 c58 -3 71 -7 66 -18 -4 -12 -25 -15 -87 -15 -44 0 -86 -4
-93 -8 -6 -4 32 -5 85 -4 54 2 98 5 98 5 1 1 5 12 8 25 7 22 6 22 -71 20 l-78
-2 72 -3z"/>
<path d="M1229 1283 c-39 -35 -75 -90 -66 -99 2 -3 10 9 17 26 7 17 33 49 58
70 25 22 42 40 38 40 -3 0 -24 -17 -47 -37z"/>
<path d="M238 1289 c-21 -11 -38 -22 -38 -24 0 -5 79 32 89 41 12 11 -18 1
-51 -17z"/>
<path d="M1067 1284 c12 -11 24 -32 26 -49 4 -28 5 -27 3 4 -1 24 -8 38 -26
49 l-25 14 22 -18z"/>
<path d="M1927 1279 c4 -13 8 -18 11 -10 2 7 -1 18 -6 23 -8 8 -9 4 -5 -13z"/>
<path d="M1952 1275 c0 -16 2 -22 5 -12 2 9 2 23 0 30 -3 6 -5 -1 -5 -18z"/>
<path d="M1977 1279 c4 -13 8 -18 11 -10 2 7 -1 18 -6 23 -8 8 -9 4 -5 -13z"/>
<path d="M376 1254 c-4 -14 -5 -28 -3 -31 3 -2 8 8 11 23 4 14 5 28 3 31 -3 2
-8 -8 -11 -23z"/>
<path d="M501 1264 c0 -11 3 -14 6 -6 3 7 2 16 -1 19 -3 4 -6 -2 -5 -13z"/>
<path d="M551 1264 c0 -11 3 -14 6 -6 3 7 2 16 -1 19 -3 4 -6 -2 -5 -13z"/>
<path d="M1253 1254 l-28 -25 33 22 c17 13 32 24 32 26 0 8 -11 1 -37 -23z"/>
<path d="M164 1238 l-19 -23 23 19 c12 11 22 21 22 23 0 8 -8 2 -26 -19z"/>
<path d="M678 1243 l113 -4 -5 -32 c-5 -24 -4 -27 3 -12 25 53 20 55 -106 53
l-118 -2 113 -3z"/>
<path d="M486 1214 c-4 -14 -5 -28 -3 -31 3 -2 8 8 11 23 4 14 5 28 3 31 -3 2
-8 -8 -11 -23z"/>
<path d="M1125 1200 c-4 -17 -5 -34 -2 -36 2 -3 7 10 11 27 3 18 4 34 2 36 -2
3 -7 -10 -11 -27z"/>
<path d="M1210 1201 c-18 -35 -12 -86 13 -109 13 -12 27 -22 31 -22 5 0 -3 9
-18 21 -28 22 -35 73 -16 110 6 10 8 19 6 19 -3 0 -10 -9 -16 -19z"/>
<path d="M125 1153 c-23 -80 -29 -119 -18 -126 5 -3 8 7 5 23 -3 21 1 31 16
39 16 8 24 5 43 -15 13 -14 33 -31 44 -36 11 -6 0 7 -24 29 -41 37 -45 43 -45
91 -1 29 -2 52 -3 52 -1 0 -9 -26 -18 -57z"/>
<path d="M328 1193 c7 -3 16 -2 19 1 4 3 -2 6 -13 5 -11 0 -14 -3 -6 -6z"/>
<path d="M918 1193 c28 -2 76 -2 105 0 28 2 5 3 -53 3 -58 0 -81 -1 -52 -3z"/>
<path d="M842 1183 c-7 -2 -17 -14 -23 -26 -9 -19 -8 -20 3 -7 8 8 20 21 28
28 15 13 13 14 -8 5z"/>
<path d="M1403 1165 c-3 -9 -3 -19 1 -22 3 -4 6 2 6 11 0 14 6 17 25 14 14 -3
25 -1 25 3 0 16 -50 10 -57 -6z"/>
<path d="M208 1154 c-39 -21 -35 -28 5 -8 37 19 44 24 31 24 -5 -1 -21 -8 -36
-16z"/>
<path d="M471 1154 c0 -11 3 -14 6 -6 3 7 2 16 -1 19 -3 4 -6 -2 -5 -13z"/>
<path d="M975 1163 c55 -2 93 -9 98 -16 6 -9 7 -8 4 3 -3 12 -23 15 -98 16
l-94 0 90 -3z"/>
<path d="M1153 1135 c0 -22 2 -30 4 -17 2 12 2 30 0 40 -3 9 -5 -1 -4 -23z"/>
<path d="M516 1129 c-8 -42 0 -50 9 -9 4 17 5 34 2 36 -2 3 -7 -10 -11 -27z"/>
<path d="M859 1143 c-13 -16 -12 -17 4 -4 9 7 17 15 17 17 0 8 -8 3 -21 -13z"/>
<path d="M1111 1134 c0 -11 3 -14 6 -6 3 7 2 16 -1 19 -3 4 -6 -2 -5 -13z"/>
<path d="M455 1100 c-4 -17 -5 -34 -2 -36 2 -3 7 10 11 27 8 42 0 50 -9 9z"/>
<path d="M801 1114 c0 -11 3 -14 6 -6 3 7 2 16 -1 19 -3 4 -6 -2 -5 -13z"/>
<path d="M1061 1123 c-1 -6 -4 -20 -7 -30 -5 -17 -5 -17 6 0 6 10 9 23 6 30
-3 9 -5 9 -5 0z"/>
<path d="M841 1104 c0 -11 3 -14 6 -6 3 7 2 16 -1 19 -3 4 -6 -2 -5 -13z"/>
<path d="M1431 1104 c0 -11 3 -14 6 -6 3 7 2 16 -1 19 -3 4 -6 -2 -5 -13z"/>
<path d="M1095 1081 c-4 -17 -16 -38 -28 -47 -17 -13 -18 -15 -4 -10 10 3 20
6 22 6 7 0 27 71 22 76 -3 3 -8 -8 -12 -25z"/>
<path d="M791 1074 c0 -11 3 -14 6 -6 3 7 2 16 -1 19 -3 4 -6 -2 -5 -13z"/>
<path d="M1160 1081 c0 -9 49 -56 53 -50 1 2 -10 16 -25 31 -15 15 -28 23 -28
19z"/>
<path d="M501 1064 c0 -11 3 -14 6 -6 3 7 2 16 -1 19 -3 4 -6 -2 -5 -13z"/>
<path d="M1421 1068 c-1 -9 -8 -24 -17 -32 -8 -9 -11 -16 -5 -16 14 0 34 38
27 53 -2 7 -5 5 -5 -5z"/>
<path d="M913 1063 c26 -2 67 -2 90 0 23 2 2 3 -48 3 -49 0 -68 -1 -42 -3z"/>
<path d="M1293 1063 c15 -2 39 -2 55 0 15 2 2 4 -28 4 -30 0 -43 -2 -27 -4z"/>
<path d="M441 1034 c0 -11 3 -14 6 -6 3 7 2 16 -1 19 -3 4 -6 -2 -5 -13z"/>
<path d="M812 1034 c9 -9 21 -15 27 -13 6 2 -2 10 -17 17 -25 11 -25 11 -10
-4z"/>
<path d="M491 1024 c0 -11 3 -14 6 -6 3 7 2 16 -1 19 -3 4 -6 -2 -5 -13z"/>
<path d="M185 1019 l-60 -6 78 -1 c74 -2 96 2 60 9 -10 2 -45 1 -78 -2z"/>
<path d="M1238 1023 c7 -3 16 -2 19 1 4 3 -2 6 -13 5 -11 0 -14 -3 -6 -6z"/>
<path d="M582 848 c-5 -7 -13 -31 -16 -53 l-6 -40 13 44 c13 46 32 63 40 36 4
-13 5 -12 3 1 -1 22 -20 28 -34 12z"/>
<path d="M1373 805 c0 -27 2 -38 4 -22 2 15 2 37 0 50 -2 12 -4 0 -4 -28z"/>
<path d="M1406 810 c-22 -56 -19 -65 5 -11 11 24 18 46 15 48 -2 2 -11 -14
-20 -37z"/>
<path d="M1676 794 c-4 -20 -5 -38 -3 -40 3 -3 8 11 11 32 4 20 5 38 3 40 -3
3 -8 -11 -11 -32z"/>
<path d="M645 810 c-4 -6 1 -7 11 -3 15 6 17 1 11 -43 -4 -31 -3 -42 3 -29 14
33 12 85 -4 85 -8 0 -18 -4 -21 -10z"/>
<path d="M711 802 c0 -11 3 -12 6 -4 2 6 9 12 15 12 7 0 9 -17 5 -47 -5 -45
-4 -46 5 -13 6 19 12 41 14 48 6 20 22 14 27 -10 4 -21 4 -20 6 3 1 25 -2 27
-39 27 -31 1 -40 -3 -39 -16z"/>
<path d="M815 790 c-4 -17 -5 -34 -2 -36 2 -3 7 10 11 27 3 18 4 34 2 36 -2 3
-7 -10 -11 -27z"/>
<path d="M886 779 c-4 -23 -5 -44 -2 -46 2 -2 7 14 11 36 7 42 30 56 38 24 4
-14 5 -12 6 5 1 17 -4 22 -23 22 -20 0 -24 -6 -30 -41z"/>
<path d="M966 803 c-2 -10 -7 -34 -10 -53 -8 -44 8 -11 17 38 7 34 2 45 -7 15z"/>
<path d="M1007 813 c-4 -3 -7 -11 -7 -17 0 -6 5 -4 10 4 9 13 11 13 20 0 8
-13 10 -12 10 3 0 17 -20 23 -33 10z"/>
<path d="M1070 810 c0 -5 7 -7 15 -4 9 4 15 0 15 -10 0 -9 -3 -16 -7 -16 -5 0
-8 -13 -8 -29 0 -41 11 -25 20 27 6 38 5 42 -14 42 -12 0 -21 -4 -21 -10z"/>
<path d="M1137 813 c-15 -25 -16 -90 -1 -113 8 -14 13 -18 11 -10 -2 8 3 24
12 35 15 18 15 19 -2 6 -24 -19 -29 -11 -21 38 6 38 26 55 37 31 3 -6 4 -5 3
2 -3 15 -32 23 -39 11z"/>
<path d="M1206 811 c-4 -5 3 -7 14 -4 23 6 26 13 6 13 -8 0 -17 -4 -20 -9z"/>
<path d="M1275 809 c-4 -6 -11 -26 -15 -45 -6 -26 -4 -36 9 -46 13 -10 14 -10
4 1 -6 7 -10 19 -8 25 2 6 6 23 9 39 4 15 13 27 22 27 10 0 14 -6 11 -17 -13
-48 -17 -77 -8 -63 5 8 11 31 13 50 2 26 -1 35 -14 38 -9 2 -19 -2 -23 -9z"/>
<path d="M1436 784 c-4 -20 -5 -38 -3 -40 3 -3 8 11 11 32 4 20 5 38 3 40 -3
3 -8 -11 -11 -32z"/>
<path d="M1473 804 c-3 -8 -1 -20 6 -27 6 -6 12 -22 12 -36 1 -20 3 -21 6 -7
3 10 -1 29 -8 42 -14 26 -4 47 11 24 8 -13 10 -12 10 3 0 21 -28 23 -37 1z"/>
<path d="M1576 808 c-20 -72 -23 -88 -16 -88 4 0 12 23 17 50 6 28 8 50 6 50
-2 0 -5 -6 -7 -12z"/>
<path d="M1610 810 c0 -5 7 -7 15 -4 17 7 18 3 6 -48 -5 -21 -5 -38 -1 -38 7
0 20 56 20 88 0 6 -9 12 -20 12 -11 0 -20 -4 -20 -10z"/>
<path d="M1227 785 c-4 -8 -2 -17 3 -20 6 -4 10 3 10 14 0 25 -6 27 -13 6z"/>
<path d="M1525 764 c-3 -20 -3 -40 2 -45 4 -4 9 12 10 37 3 53 -2 57 -12 8z"/>
<path d="M627 763 c-4 -19 0 -33 11 -43 11 -9 12 -10 5 -1 -7 8 -9 27 -6 42 3
16 3 29 0 29 -2 0 -7 -12 -10 -27z"/>
<path d="M844 754 c-6 -19 -8 -34 -3 -34 8 0 24 59 17 65 -2 2 -8 -12 -14 -31z"/>
<path d="M701 768 c0 -9 -4 -25 -7 -35 -5 -17 -5 -17 6 0 6 10 9 25 7 35 -4
15 -5 15 -6 0z"/>
<path d="M992 760 c0 -14 2 -19 5 -12 2 6 2 18 0 25 -3 6 -5 1 -5 -13z"/>
<path d="M918 747 c-3 -19 -2 -25 4 -19 6 6 8 18 6 28 -3 14 -5 12 -10 -9z"/>
<path d="M1057 763 c-9 -9 -9 -41 1 -46 4 -3 7 8 7 24 0 16 0 29 -1 29 0 0 -4
-3 -7 -7z"/>
<path d="M1192 758 c-15 -15 -15 -35 0 -44 8 -5 9 -2 5 11 -4 9 -2 24 4 31 14
17 7 18 -9 2z"/>
<path d="M1595 749 c-4 -12 -2 -26 5 -33 8 -8 10 -7 4 7 -3 9 -1 24 6 32 8 9
8 15 2 15 -6 0 -14 -9 -17 -21z"/>
<path d="M772 740 c0 -14 2 -19 5 -12 2 6 2 18 0 25 -3 6 -5 1 -5 -13z"/>
<path d="M550 738 c0 -9 7 -19 16 -22 15 -6 15 -4 3 11 -7 10 -15 20 -16 22
-2 2 -3 -3 -3 -11z"/>
<path d="M590 735 c0 -8 2 -15 4 -15 2 0 6 7 10 15 3 8 1 15 -4 15 -6 0 -10
-7 -10 -15z"/>
<path d="M1216 735 c-3 -8 -1 -15 4 -15 6 0 10 7 10 15 0 8 -2 15 -4 15 -2 0
-6 -7 -10 -15z"/>
<path d="M1377 743 c-4 -3 -7 -11 -7 -17 0 -6 5 -5 12 2 6 6 9 14 7 17 -3 3
-9 2 -12 -2z"/>
<path d="M800 731 c0 -5 5 -13 10 -16 6 -3 10 -2 10 4 0 5 -4 13 -10 16 -5 3
-10 2 -10 -4z"/>
<path d="M1460 731 c0 -6 4 -13 10 -16 6 -3 7 1 4 9 -7 18 -14 21 -14 7z"/>
<path d="M627 664 c-12 -12 -7 -48 8 -68 8 -11 15 -15 15 -9 0 7 -4 15 -10 18
-16 10 -12 55 4 55 8 0 17 -5 19 -10 3 -6 4 -5 3 2 -3 15 -28 22 -39 12z"/>
<path d="M766 655 c-3 -9 -6 -24 -5 -33 0 -9 5 -4 10 12 9 32 6 48 -5 21z"/>
<path d="M958 663 c7 -3 16 -2 19 1 4 3 -2 6 -13 5 -11 0 -14 -3 -6 -6z"/>
<path d="M1487 653 c-4 -3 -7 -15 -7 -26 0 -25 9 -17 15 12 4 22 2 25 -8 14z"/>
<path d="M1310 650 c0 -3 -3 -23 -5 -45 l-4 -40 10 33 c5 19 8 39 5 45 -2 7
-5 10 -6 7z"/>
<path d="M531 631 c-7 -5 -16 -29 -18 -55 -5 -37 -3 -46 10 -46 9 0 19 4 22
10 3 6 -1 7 -9 4 -11 -4 -16 0 -16 15 0 14 6 21 20 21 11 0 20 4 20 9 0 5 -10
7 -21 4 -19 -5 -20 -4 -9 16 10 19 14 20 28 9 15 -12 16 -11 3 5 -7 9 -14 17
-15 17 0 0 -7 -4 -15 -9z"/>
<path d="M719 602 c5 -34 6 -35 9 -8 2 16 0 32 -5 37 -5 5 -7 -7 -4 -29z"/>
<path d="M872 628 c-7 -7 -11 -21 -11 -32 1 -21 1 -21 6 -1 3 11 10 26 15 33
13 15 6 16 -10 0z"/>
<path d="M941 627 c-6 -6 -11 -15 -11 -21 0 -5 6 -1 14 10 12 16 16 16 20 4 8
-20 -7 -73 -21 -77 -7 -3 -13 8 -16 24 -4 27 -4 27 -6 -4 -1 -27 3 -33 19 -33
14 0 22 11 29 38 6 20 11 42 11 48 0 17 -26 24 -39 11z"/>
<path d="M1011 631 c-7 -5 -16 -29 -18 -55 -5 -37 -3 -46 10 -46 9 0 19 4 22
10 3 6 -1 7 -9 4 -11 -4 -16 0 -16 15 0 14 6 21 20 21 11 0 20 4 20 9 0 5 -10
7 -21 4 -19 -5 -20 -4 -9 16 10 19 14 20 28 9 15 -12 16 -11 3 5 -7 9 -14 17
-15 17 0 0 -7 -4 -15 -9z"/>
<path d="M1070 625 c-10 -12 -9 -20 4 -40 9 -13 16 -29 16 -35 0 -14 -27 -13
-33 3 -3 7 -6 4 -6 -6 -1 -13 5 -18 21 -15 29 4 35 34 12 59 -14 15 -14 21 -4
34 7 8 10 15 7 15 -2 0 -10 -7 -17 -15z"/>
<path d="M1162 620 c0 -14 2 -19 5 -12 2 6 2 18 0 25 -3 6 -5 1 -5 -13z"/>
<path d="M1229 608 c4 -28 6 -29 9 -9 2 13 0 27 -5 32 -6 6 -7 -3 -4 -23z"/>
<path d="M1271 622 c-5 -9 -11 -33 -13 -52 -2 -30 0 -35 20 -38 16 -3 22 1 21
15 0 10 -3 13 -6 6 -2 -7 -11 -13 -19 -13 -14 0 -10 47 8 83 11 22 2 22 -11
-1z"/>
<path d="M1436 627 c3 -10 9 -15 12 -12 3 3 0 11 -7 18 -10 9 -11 8 -5 -6z"/>
<path d="M1609 623 c-13 -16 -12 -17 4 -4 16 13 21 21 13 21 -2 0 -10 -8 -17
-17z"/>
<path d="M1710 625 c-10 -12 -9 -20 5 -41 13 -19 14 -29 6 -37 -9 -9 -14 -8
-21 3 -8 13 -10 12 -10 -2 0 -23 36 -24 44 -2 4 9 -1 28 -9 41 -19 29 -10 50
13 31 15 -12 16 -11 3 5 -16 21 -16 21 -31 2z"/>
<path d="M680 590 c-8 -29 -8 -46 -1 -53 12 -12 41 -2 40 15 0 10 -2 10 -6 1
-5 -14 -33 -18 -33 -5 0 4 4 23 10 41 5 19 8 37 5 39 -2 2 -9 -15 -15 -38z"/>
<path d="M792 610 c0 -14 2 -19 5 -12 2 6 2 18 0 25 -3 6 -5 1 -5 -13z"/>
<path d="M824 590 c-10 -48 -30 -64 -37 -28 -4 20 -4 19 -6 -5 -1 -24 3 -28
21 -25 17 2 24 13 30 42 5 22 7 44 5 50 -2 5 -8 -10 -13 -34z"/>
<path d="M901 614 c0 -11 3 -14 6 -6 3 7 2 16 -1 19 -3 4 -6 -2 -5 -13z"/>
<path d="M1197 623 c-3 -4 -7 -28 -11 -53 l-6 -45 15 50 c13 45 14 68 2 48z"/>
<path d="M1336 599 c-10 -54 -7 -69 14 -69 14 0 22 11 29 38 6 20 10 44 10 52
-1 8 -6 -5 -13 -29 -17 -63 -41 -69 -32 -7 8 52 2 63 -8 15z"/>
<path d="M1410 613 c0 -12 5 -25 10 -28 13 -8 13 -45 1 -45 -5 0 -12 6 -14 13
-3 7 -6 5 -6 -5 -1 -12 6 -18 19 -18 24 0 26 24 5 71 -11 27 -14 30 -15 12z"/>
<path d="M1520 614 c0 -14 3 -14 15 -4 8 7 15 14 15 16 0 2 -7 4 -15 4 -8 0
-15 -7 -15 -16z"/>
<path d="M1565 598 c-4 -18 -9 -42 -11 -53 -4 -15 -3 -17 4 -5 11 17 25 90 18
90 -2 0 -7 -15 -11 -32z"/>
<path d="M1640 616 c0 -9 -11 -22 -25 -28 -32 -14 -35 -58 -5 -58 11 0 20 4
20 10 0 5 -7 7 -15 4 -9 -4 -15 0 -15 9 0 21 20 33 30 17 4 -7 10 1 14 21 3
18 4 34 1 37 -3 3 -5 -2 -5 -12z"/>
<path d="M1665 580 c-4 -23 -5 -43 -2 -46 2 -3 7 14 11 37 4 23 5 44 2 46 -2
2 -7 -14 -11 -37z"/>
<path d="M746 569 c-8 -42 0 -50 9 -9 4 17 5 34 2 36 -2 3 -7 -10 -11 -27z"/>
<path d="M1472 580 c0 -14 2 -19 5 -12 2 6 2 18 0 25 -3 6 -5 1 -5 -13z"/>
<path d="M1151 578 c0 -9 -4 -25 -7 -35 -5 -17 -5 -17 6 0 6 10 9 25 7 35 -4
15 -5 15 -6 0z"/>
<path d="M1511 578 c0 -9 -4 -25 -7 -35 -5 -17 -5 -17 6 0 6 10 9 25 7 35 -4
15 -5 15 -6 0z"/>
<path d="M856 545 c3 -16 5 -35 6 -42 1 -7 5 -10 10 -7 5 4 7 12 4 20 -3 8 -1
14 3 14 5 0 12 8 16 18 5 14 4 15 -6 5 -18 -18 -27 -16 -33 5 -3 9 -3 4 0 -13z"/>
<path d="M1222 550 c0 -14 2 -19 5 -12 2 6 2 18 0 25 -3 6 -5 1 -5 -13z"/>
<path d="M601 547 c-1 -13 5 -18 21 -15 12 2 23 9 24 16 1 7 0 8 -3 2 -7 -14
-30 -13 -36 3 -3 7 -6 4 -6 -6z"/>
<path d="M1460 540 c0 -5 5 -10 11 -10 5 0 7 5 4 10 -3 6 -8 10 -11 10 -2 0
-4 -4 -4 -10z"/>
</g>
</svg>
