<?xml version="1.0" standalone="no"?>
<!DOCTYPE svg PUBLIC "-//W3C//DTD SVG 20010904//EN"
 "http://www.w3.org/TR/2001/REC-SVG-20010904/DTD/svg10.dtd">
<svg version="1.0" xmlns="http://www.w3.org/2000/svg"
 width="200.000000pt" height="200.000000pt" viewBox="0 0 200.000000 200.000000"
 preserveAspectRatio="xMidYMid meet">

<g transform="translate(0.000000,200.000000) scale(0.100000,-0.100000)"
fill="#000000" stroke="none">
<path d="M0 1000 l0 -1000 1000 0 1000 0 0 1000 0 1000 -1000 0 -1000 0 0
-1000z m1095 359 c52 -24 145 -108 145 -131 0 -7 -40 -27 -91 -45 l-92 -33
-32 20 c-74 45 -170 14 -201 -65 -22 -58 -12 -109 29 -150 45 -45 94 -52 155
-23 l47 23 -63 3 -63 3 3 77 3 77 167 3 167 2 3 128 3 127 165 -1 c189 0 223
-8 273 -63 57 -63 58 -155 1 -216 -14 -15 -24 -28 -22 -30 2 -1 13 -8 26 -14
89 -46 81 -215 -12 -279 -53 -36 -91 -42 -268 -42 l-168 0 0 97 0 97 -28 -45
c-36 -56 -93 -106 -151 -133 -37 -17 -66 -21 -146 -21 -87 0 -107 3 -155 26
-68 33 -125 89 -156 154 -23 47 -24 48 -24 19 0 -119 -96 -204 -230 -204 -53
0 -78 6 -121 28 -30 15 -55 34 -57 42 -1 9 13 51 33 94 l35 77 26 -20 c30 -24
59 -27 71 -8 4 6 10 109 13 227 l5 215 113 3 112 3 0 -113 0 -113 31 55 c37
68 62 95 117 127 70 42 120 53 207 49 57 -2 94 -10 130 -27z m753 -21 c4 -33
-31 -49 -55 -25 -23 23 -8 56 25 54 21 -2 28 -8 30 -29z"/>
<path d="M1470 1180 l0 -41 43 3 c41 3 42 4 42 38 0 34 -1 35 -42 38 l-43 3 0
-41z"/>
<path d="M1470 930 l0 -50 45 0 c37 0 47 4 61 25 14 21 15 31 6 50 -10 22 -18
25 -62 25 l-50 0 0 -50z"/>
<path d="M1831 1343 c-1 -25 -22 -27 -33 -3 -5 12 -7 12 -7 -3 -1 -21 26 -34
41 -19 5 5 8 18 5 28 -4 16 -5 15 -6 -3z"/>
</g>
</svg>
